<svg fill="none" height="60" viewBox="0 0 60 60" width="60" xmlns="http://www.w3.org/2000/svg">
  <path fill="context-fill" fill-opacity="context-fill-opacity" d="m49 6h-37.5c-1.98912 0-3.89678.79018-5.3033 2.1967s-2.1967 3.3142-2.1967 5.3033v33.75c0 1.9891.79018 3.8968 2.1967 5.3033s3.31418 2.1967 5.3033 2.1967h37.5c1.9891 0 3.8968-.7902 5.3033-2.1967s2.1967-3.3142 2.1967-5.3033v-33.75c0-1.9891-.7902-3.89678-2.1967-5.3033s-3.3142-2.1967-5.3033-2.1967zm-38.0625 4.6875h38.625l2.25 2.25v8.0625h-43.125v-8.0625zm38.625 39.375h-38.625l-2.25-2.25v-22.125h43.125v22.125z"/>
</svg>
