<svg fill="none" height="60" viewBox="0 0 60 60" width="60" xmlns="http://www.w3.org/2000/svg">
  <path fill="context-fill" fill-opacity="context-fill-opacity" d="m30 1.875c-7.4592 0-14.6129 2.96316-19.8874 8.2376-5.27444 5.2745-8.2376 12.4282-8.2376 19.8874s2.96316 14.6129 8.2376 19.8874c5.2745 5.2744 12.4282 8.2376 19.8874 8.2376s14.6129-2.9632 19.8874-8.2376c5.2744-5.2745 8.2376-12.4282 8.2376-19.8874s-2.9632-14.6129-8.2376-19.8874c-5.2745-5.27444-12.4282-8.2376-19.8874-8.2376zm9.1762 6.5625c3.8504 1.6533 7.1876 4.3079 9.6646 7.6877 2.477 3.3799 4.0034 7.3615 4.4205 11.531h-8.3588c-.4617-6.9829-2.9858-13.6716-7.2525-19.2187zm-7.6837 0c5.0739 5.1814 8.1562 11.9874 8.7037 19.2187h-20.3924c.5475-7.2313 3.6298-14.0373 8.7037-19.2187zm-10.6725 0h1.53c-4.2651 5.548-6.789 12.2362-7.2525 19.2187h-8.35875c.41632-4.1692 1.942-8.1508 4.41835-11.5306 2.4764-3.3799 5.813-6.0346 9.6629-7.6881zm0 43.125c-3.8504-1.6528-7.1874-4.3074-9.6639-7.6874-2.47642-3.38-4.0018-7.3619-4.41735-11.5313h8.35875c.4617 6.9829 2.9858 13.6716 7.2525 19.2187zm7.6875 0c-5.0739-5.1814-8.1562-11.9874-8.7037-19.2187h20.3887c-.5475 7.2313-3.6298 14.0373-8.7037 19.2187zm10.6725 0h-1.5338c4.2683-5.5462 6.7926-12.2354 7.2525-19.2187h8.3588c-.4156 4.1689-1.9406 8.1504-4.4163 11.5302-2.4757 3.3799-5.8118 6.0348-9.6612 7.6885z"/>
</svg>
