<svg fill="none" height="60" viewBox="0 0 60 60" width="60" xmlns="http://www.w3.org/2000/svg">
  <g fill="context-fill" fill-opacity="context-fill-opacity">
    <path clip-rule="evenodd" d="m11.25 6h37.5c1.9891 0 3.8968.79018 5.3033 2.1967s2.1967 3.3142 2.1967 5.3033v33.75c0 1.9891-.7902 3.8968-2.1967 5.3033s-3.3142 2.1967-5.3033 2.1967h-37.5c-1.98912 0-3.89678-.7902-5.3033-2.1967s-2.1967-3.3142-2.1967-5.3033v-33.75c0-1.9891.79018-3.89678 2.1967-5.3033s3.31418-2.1967 5.3033-2.1967zm-.5625 4.6875h38.625l2.25 2.25v34.875l-2.25 2.25h-38.625l-2.25-2.25v-34.875z" fill-rule="evenodd"/>
    <path d="m15.9606 22c-.52 0-1.0187-.2107-1.3863-.5858-.3677-.3751-.5743-.8838-.5743-1.4142s.2066-1.0391.5743-1.4142c.3676-.3751.8663-.5858 1.3863-.5858h14.0788c.52 0 1.0187.2107 1.3863.5858.3677.3751.5743.8838.5743 1.4142s-.2066 1.0391-.5743 1.4142c-.3676.3751-.8663.5858-1.3863.5858z"/>
    <path d="m44.0709 32h-28.1418c-.5116 0-1.0023-.2107-1.3641-.5858s-.565-.8838-.565-1.4142.2032-1.0391.565-1.4142.8525-.5858 1.3641-.5858h28.1418c.5116 0 1.0023.2107 1.3641.5858s.565.8838.565 1.4142-.2032 1.0391-.565 1.4142-.8525.5858-1.3641.5858z"/>
    <path d="m44.0709 42h-28.1418c-.5116 0-1.0023-.2107-1.3641-.5858s-.565-.8838-.565-1.4142.2032-1.0391.565-1.4142.8525-.5858 1.3641-.5858h28.1418c.5116 0 1.0023.2107 1.3641.5858s.565.8838.565 1.4142-.2032 1.0391-.565 1.4142-.8525.5858-1.3641.5858z"/>
  </g>
</svg>
