<svg viewBox="0 0 16 16" width="16" height="16"  xmlns="http://www.w3.org/2000/svg">
  <g fill-opacity="context-fill-opacity" fill="context-fill">
    <path d="m6.23025 15.393c-3.53742-.6033-6.23025-3.6837-6.23025-7.393 0-4.14214 3.35786-7.5 7.5-7.5 4.1421 0 7.5 3.35786 7.5 7.5 0 .66904-.0876 1.31762-.252 1.9349l-.9277-1.61757c.0052-.10512.0078-.21092.0078-.31733 0-3.49493-2.8332-6.32812-6.3281-6.32812-3.49493 0-6.32812 2.83319-6.32812 6.32812 0 2.9851 2.06684 5.4874 4.84752 6.154-.05998.4351.02161.8644.21085 1.239z"/>
    <path d="m6.42277 13.1394c-2.38278-.4969-4.17278-2.6091-4.17278-5.13941 0-2.89949 2.35051-5.25 5.25-5.25 2.48426 0 4.56551 1.72549 5.11071 4.04336-.4001-.23081-.8624-.32542-1.3135-.28382-.5952-1.51508-2.07094-2.58766-3.79721-2.58766-2.25228 0-4.07812 1.82584-4.07812 4.07812 0 2.09871 1.58539 3.82721 3.6239 4.05311z"/>
    <path d="m10.2788 6.8674c-.44688-1.09541-1.52269-1.8674-2.7788-1.8674-1.65685 0-3 1.34315-3 3 0 1.65686 1.34315 3 3 3 .05095 0 .10161-.0013.15193-.0038l.83612-1.45782c-.28491.18337-.62405.28975-.98805.28975-1.00964 0-1.82812-.81848-1.82812-1.82813 0-1.00964.81848-1.82812 1.82812-1.82812 1.00965 0 1.82813.81848 1.82813 1.82812 0 .02558-.00053.05104-.00157.07637l.27582-.48091c.17642-.30737.40992-.55005.67642-.72806z"/>
    <path d="m6.23025 15.393c-3.53742-.6033-6.23025-3.6837-6.23025-7.393 0-4.14214 3.35786-7.5 7.5-7.5v10.7611l-1.20826 2.1067c-.39168.6811-.36535 1.4237-.06149 2.0252z"/>
    <path d="m15.8456 13.8662-3.311-5.77295c-.454-.791-1.615-.791-2.069 0l-3.31095 5.77295c-.446.775.126 1.7341 1.034 1.7341h6.62295c.907 0 1.479-.9591 1.034-1.7341zm-3.721-1.892c0 .1658-.0658.3248-.183.442s-.2762.183-.442.183c-.1657 0-.3247-.0658-.4419-.183s-.1831-.2762-.1831-.442v-1.747c0-.1657.0659-.32468.1831-.44189s.2762-.18306.4419-.18306c.1658 0 .3248.06585.442.18306s.183.27619.183.44189zm-.625 2.626c-.1657 0-.3247-.0658-.4419-.183s-.1831-.2762-.1831-.442c0-.1657.0659-.3247.1831-.4419s.2762-.1831.4419-.1831c.1658 0 .3248.0659.442.1831s.183.2762.183.4419c0 .1658-.0658.3248-.183.442s-.2762.183-.442.183z"/>
  </g>
</svg>