<svg viewBox="0 0 16 16" width="16" height="16" xmlns="http://www.w3.org/2000/svg">
  <g fill-opacity="context-fill-opacity" fill="context-fill">
    <path d="m13.3034 13.3032c-1.3572 1.3573-3.2323 2.1968-5.3034 2.1968-4.14214 0-7.5-3.3579-7.5-7.5 0-2.07093.83935-3.94582 2.19643-5.30303l.82867.82861c-1.14502 1.14515-1.85322 2.72708-1.85322 4.47442 0 3.4949 2.83319 6.3281 6.32812 6.3281 1.74752 0 3.3296-.7083 4.4748-1.8536z"/>
    <path d="m14.1137 12.3453c.8729-1.226 1.3863-2.72567 1.3863-4.3453 0-4.14214-3.3579-7.5-7.5-7.5-1.61963 0-3.11935.51339-4.34531 1.38631l.84258.84258c1.00297-.66783 2.2074-1.05701 3.50273-1.05701 3.4949 0 6.3281 2.83319 6.3281 6.32812 0 1.29533-.3892 2.4998-1.057 3.5027z"/>
    <path d="m12.4902 10.7218c.4822-.79365.7598-1.7253.7598-2.72181 0-2.89949-2.3505-5.25-5.25001-5.25-.9965 0-1.92816.27764-2.72184.75978l.86063.86062c.558-.28671 1.19071-.44852 1.86121-.44852 2.25231 0 4.07811 1.82584 4.07811 4.07812 0 .67051-.1618 1.30322-.4485 1.86122z"/>
    <path d="m11.7124 11.7122-.8287-.8286c-.738.738-1.75754 1.1945-2.88371 1.1945-2.25228 0-4.07812-1.8258-4.07812-4.07811 0-1.12605.45639-2.14551 1.19428-2.88349l-.82868-.82861c-.94994.95005-1.53748 2.26246-1.53748 3.7121 0 2.89951 2.35051 5.25001 5.25 5.25001 1.44979 0 2.76231-.5877 3.71241-1.5378z"/>
    <path d="m5.87853 5.87883c-.5428.54288-.87853 1.29282-.87853 2.12117 0 1.65686 1.34315 3 3 3 .82844 0 1.57845-.3358 2.1213-.8787l-.82863-.8286c-.33083.33081-.78785.53543-1.29267.53543-1.00964 0-1.82812-.81848-1.82812-1.82813 0-.50476.20457-.96175.53533-1.29256z"/>
    <path d="m9.8272 8.05881c.00062-.01952.00093-.03913.00093-.05881 0-1.00964-.81848-1.82812-1.82813-1.82812-.01968 0-.03928.00031-.05881.00093l-.98589-.9859c.32532-.12086.6773-.18691 1.0447-.18691 1.65686 0 3 1.34315 3 3 0 .3674-.066.71938-.1869 1.04471z"/>
    <path d="m8 15.5c-4.14214 0-7.5-3.3579-7.5-7.5 0-2.07093.83935-3.94582 2.19643-5.30303l5.30357 5.30316z"/>
    <path d="m8 6.23161v-5.73161c-1.61963 0-3.11935.51339-4.34531 1.38631z"/>
  </g>
  <path d="m14.1161 15.6245c-.0821.0001-.1634-.016-.2393-.0474-.0758-.0314-.1447-.0775-.2027-.1356l-12.749984-12.749c-.109266-.11882-.168406-.27526-.165071-.43666.003335-.16139.068886-.31525.182967-.42946.114078-.11421.267868-.17994.429258-.18345.16139-.00352.3179.05544.43685.16457l12.74998 12.75c.1168.1176.1824.2767.1824.4425s-.0656.3249-.1824.4425c-.058.058-.1269.1039-.2028.1352-.0759.0312-.1571.0471-.2392.0468z" fill="#ff0039"/>
</svg>
