<?xml version="1.0" encoding="UTF-8" standalone="no"?>
<svg viewBox="0 0 16 16" width="16" height="16"  xmlns="http://www.w3.org/2000/svg">
  <path d="M 7.5,0.5 C 3.35786,0.5 0,3.85786 0,8 c 0,3.7093 2.6930488,6.789278 6.2304688,7.392578 -0.032181,-0.0637 -0.060149,-0.128686 -0.085938,-0.195312 -0.00862,-0.02227 -0.01751,-0.04385 -0.025391,-0.06641 -0.023385,-0.0669 -0.043878,-0.135932 -0.060547,-0.205078 -0.00186,-0.0077 -0.00213,-0.01571 -0.00391,-0.02344 -0.017615,-0.07685 -0.032109,-0.153488 -0.041016,-0.232422 -7.27e-5,-6.44e-4 7.2e-5,-0.0013 0,-0.002 -0.0087,-0.07777 -0.011896,-0.157155 -0.011719,-0.236328 7.71e-5,-0.0337 2.127e-4,-0.06769 0.00195,-0.101563 3.337e-4,-0.0065 -3.955e-4,-0.01303 0,-0.01953 0.00318,-0.05219 0.0084,-0.10381 0.015625,-0.15625 0.03623,-0.263929 0.1235201,-0.529812 0.2714844,-0.787109 L 6.421875,13.138672 C 7.1130865,11.933878 7.8482649,10.654869 8.4882812,9.5390625 8.2033713,9.7224325 7.864,9.828125 7.5,9.828125 v -3.65625 c 1.00965,0 1.828125,0.818485 1.828125,1.828125 0,0.02558 -9.131e-4,0.050842 -0.00195,0.076172 L 9.6015625,7.5957031 C 9.7779825,7.2883331 10.012797,7.0451975 10.279297,6.8671875 9.8324169,5.7717775 8.75611,5 7.5,5 V 3.921875 c 1.72627,0 3.201675,1.0728106 3.796875,2.5878906 0.4511,-0.0416 0.914353,0.052393 1.314453,0.2832032 C 12.066128,4.4750988 9.98426,2.75 7.5,2.75 V 1.671875 c 3.4949,0 6.328125,2.833195 6.328125,6.328125 0,0.10641 -0.0026,0.2112863 -0.0078,0.3164062 L 14.74806,9.9355469 C 14.912447,9.3182669 15,8.66904 15,8 15,3.85786 11.6421,0.5 7.5,0.5 Z m 4,7 c -0.40375,0 -0.808156,0.19825 -1.035156,0.59375 l -3.3105471,5.771484 c -0.446,0.775 0.1271562,1.734375 1.0351562,1.734375 H 14.8125 c 0.907,0 1.478203,-0.959375 1.033203,-1.734375 L 12.535156,8.09375 C 12.308156,7.69825 11.90375,7.5 11.5,7.5 Z m 0,2.1015625 c 0.1658,0 0.324206,0.066384 0.441406,0.1835937 0.1172,0.1172101 0.183594,0.2757058 0.183594,0.4414058 v 1.748047 c 0,0.1658 -0.06639,0.324207 -0.183594,0.441407 -0.1172,0.1172 -0.275606,0.183593 -0.441406,0.183593 -0.1657,0 -0.324206,-0.06639 -0.441406,-0.183593 -0.1172,-0.1172 -0.183594,-0.275607 -0.183594,-0.441407 v -1.748047 c 0,-0.165699 0.06639,-0.3241957 0.183594,-0.4414058 C 11.175794,9.6679462 11.3343,9.6015625 11.5,9.6015625 Z m 0,3.7480465 c 0.1658,0 0.324206,0.06639 0.441406,0.183594 0.1172,0.1172 0.183594,0.275706 0.183594,0.441406 0,0.1658 -0.06639,0.32616 -0.183594,0.44336 -0.1172,0.1172 -0.275606,0.18164 -0.441406,0.18164 -0.1657,0 -0.324206,-0.06444 -0.441406,-0.18164 -0.1172,-0.1172 -0.183594,-0.27756 -0.183594,-0.44336 0,-0.1657 0.06639,-0.324206 0.183594,-0.441406 0.1172,-0.1172 0.275706,-0.183594 0.441406,-0.183594 z" fill-opacity="context-fill-opacity" fill="context-fill"/>
</svg>
