<svg fill="none" height="150" viewBox="0 0 1200 150" width="1200" xmlns="http://www.w3.org/2000/svg">
    <path clip-rule="evenodd" d="m75 145c38.66 0 70-31.34 70-70 0-38.6599-31.34-70-70-70-38.6599 0-70 31.3401-70 70 0 38.66 31.3401 70 70 70zm0 5c41.421 0 75-33.579 75-75 0-41.4214-33.579-75-75-75-41.4214 0-75 33.5786-75 75 0 41.421 33.5786 75 75 75z" fill="#3e0663" fill-rule="evenodd"/>
    <path clip-rule="evenodd" d="m75 126.25c28.305 0 51.25-22.945 51.25-51.25 0-28.3046-22.945-51.25-51.25-51.25-28.3046 0-51.25 22.9454-51.25 51.25 0 28.305 22.9454 51.25 51.25 51.25zm0 5c31.066 0 56.25-25.184 56.25-56.25s-25.184-56.25-56.25-56.25-56.25 25.184-56.25 56.25 25.184 56.25 56.25 56.25z" fill="#3e0663" fill-rule="evenodd"/>
    <path clip-rule="evenodd" d="m75 107.5c17.9493 0 32.5-14.5507 32.5-32.5s-14.5507-32.5-32.5-32.5-32.5 14.5507-32.5 32.5 14.5507 32.5 32.5 32.5zm0 5c20.7107 0 37.5-16.7893 37.5-37.5s-16.7893-37.5-37.5-37.5-37.5 16.7893-37.5 37.5 16.7893 37.5 37.5 37.5z" fill="#3e0663" fill-rule="evenodd"/>
    
    <path clip-rule="evenodd" d="m75 88.75c7.5939 0 13.75-6.1561 13.75-13.75s-6.1561-13.75-13.75-13.75-13.75 6.1561-13.75 13.75 6.1561 13.75 13.75 13.75zm0 5c10.3553 0 18.75-8.3947 18.75-18.75s-8.3947-18.75-18.75-18.75-18.75 8.3947-18.75 18.75 8.3947 18.75 18.75 18.75z" fill="#3e0663" fill-rule="evenodd"/>
    <path d="m294.846 0c2.762 0 5.017 2.24554 4.836 5.001-2.573 39.0897-35.095 69.999-74.836 69.999s-72.262-30.9093-74.836-69.999c-.181-2.75546 2.075-5.001 4.836-5.001z" fill="#3e0663"/>
    <path d="m294.846 75c2.762 0 5.017 2.2455 4.836 5.001-2.573 39.09-35.095 69.999-74.836 69.999s-72.262-30.909-74.836-69.999c-.181-2.7555 2.075-5.001 4.836-5.001z" fill="#350556"/>
    <path clip-rule="evenodd" d="m374.692 145c38.66 0 70-31.34 70-70 0-38.6599-31.34-70-70-70s-70 31.3401-70 70c0 38.66 31.34 70 70 70zm0 5c41.422 0 75-33.579 75-75 0-41.4214-33.578-75-75-75-41.421 0-75 33.5786-75 75 0 41.421 33.579 75 75 75z" fill="#3e0663" fill-rule="evenodd"/>
    <path clip-rule="evenodd" d="m374.692 126.25c28.305 0 51.25-22.945 51.25-51.25 0-28.3046-22.945-51.25-51.25-51.25-28.304 0-51.25 22.9454-51.25 51.25 0 28.305 22.946 51.25 51.25 51.25zm0 5c31.066 0 56.25-25.184 56.25-56.25s-25.184-56.25-56.25-56.25-56.25 25.184-56.25 56.25 25.184 56.25 56.25 56.25z" fill="#3e0663" fill-rule="evenodd"/>
    <path clip-rule="evenodd" d="m374.692 107.5c17.95 0 32.5-14.5507 32.5-32.5s-14.55-32.5-32.5-32.5c-17.949 0-32.5 14.5507-32.5 32.5s14.551 32.5 32.5 32.5zm0 5c20.711 0 37.5-16.7893 37.5-37.5s-16.789-37.5-37.5-37.5c-20.71 0-37.5 16.7893-37.5 37.5s16.79 37.5 37.5 37.5z" fill="#3e0663" fill-rule="evenodd"/>
    <path clip-rule="evenodd" d="m374.692 88.75c7.594 0 13.75-6.1561 13.75-13.75s-6.156-13.75-13.75-13.75-13.75 6.1561-13.75 13.75 6.156 13.75 13.75 13.75zm0 5c10.356 0 18.75-8.3947 18.75-18.75s-8.394-18.75-18.75-18.75c-10.355 0-18.75 8.3947-18.75 18.75s8.395 18.75 18.75 18.75z" fill="#3e0663" fill-rule="evenodd"/>
    <path d="m449.692 4.99998c0-2.76142 2.246-5.0173044 5.001-4.835902 39.09 2.573422 69.999 35.095022 69.999 74.835922 0 39.741-30.909 72.262-69.999 74.836-2.755.181-5.001-2.075-5.001-4.836z" fill="#3e0663"/>
    <path d="m524.692 4.99998c0-2.76142 2.246-5.0173044 5.001-4.835902 39.09 2.573422 69.999 35.095022 69.999 74.835922 0 39.741-30.909 72.262-69.999 74.836-2.755.181-5.001-2.075-5.001-4.836z" fill="#350556"/>
    <path clip-rule="evenodd" d="m674.692 145c38.66 0 70-31.34 70-70 0-38.6599-31.34-70-70-70s-70 31.3401-70 70c0 38.66 31.34 70 70 70zm0 5c41.422 0 75-33.579 75-75 0-41.4214-33.578-75-75-75-41.421 0-75 33.5786-75 75 0 41.421 33.579 75 75 75z" fill="#3e0663" fill-rule="evenodd"/>
    <path clip-rule="evenodd" d="m674.692 126.25c28.305 0 51.25-22.945 51.25-51.25 0-28.3046-22.945-51.25-51.25-51.25-28.304 0-51.25 22.9454-51.25 51.25 0 28.305 22.946 51.25 51.25 51.25zm0 5c31.066 0 56.25-25.184 56.25-56.25s-25.184-56.25-56.25-56.25-56.25 25.184-56.25 56.25 25.184 56.25 56.25 56.25z" fill="#3e0663" fill-rule="evenodd"/>
    <path clip-rule="evenodd" d="m674.692 107.5c17.95 0 32.5-14.5507 32.5-32.5s-14.55-32.5-32.5-32.5c-17.949 0-32.5 14.5507-32.5 32.5s14.551 32.5 32.5 32.5zm0 5c20.711 0 37.5-16.7893 37.5-37.5s-16.789-37.5-37.5-37.5c-20.71 0-37.5 16.7893-37.5 37.5s16.79 37.5 37.5 37.5z" fill="#3e0663" fill-rule="evenodd"/>
    <path clip-rule="evenodd" d="m674.692 88.75c7.594 0 13.75-6.1561 13.75-13.75s-6.156-13.75-13.75-13.75-13.75 6.1561-13.75 13.75 6.156 13.75 13.75 13.75zm0 5c10.356 0 18.75-8.3947 18.75-18.75s-8.394-18.75-18.75-18.75c-10.355 0-18.75 8.3947-18.75 18.75s8.395 18.75 18.75 18.75z" fill="#3e0663" fill-rule="evenodd"/>
    <path d="m894.538 0c2.762 0 5.018 2.24554 4.836 5.001-2.573 39.0897-35.095 69.999-74.836 69.999-39.74 0-72.262-30.9093-74.836-69.999-.181-2.75546 2.075-5.001 4.836-5.001z" fill="#3e0663"/>
    <path d="m894.538 75c2.762 0 5.018 2.2455 4.836 5.001-2.573 39.09-35.095 69.999-74.836 69.999-39.74 0-72.262-30.909-74.836-69.999-.181-2.7555 2.075-5.001 4.836-5.001z" fill="#350556"/>
    <path clip-rule="evenodd" d="m974.385 145c38.655 0 69.995-31.34 69.995-70 0-38.6599-31.34-70-69.995-70-38.66 0-70 31.3401-70 70 0 38.66 31.34 70 70 70zm0 5c41.425 0 74.995-33.579 74.995-75 0-41.4214-33.57-75-74.995-75-41.422 0-75 33.5786-75 75 0 41.421 33.578 75 75 75z" fill="#3e0663" fill-rule="evenodd"/>
    <path clip-rule="evenodd" d="m974.385 126.25c28.305 0 51.245-22.945 51.245-51.25 0-28.3046-22.94-51.25-51.245-51.25s-51.25 22.9454-51.25 51.25c0 28.305 22.945 51.25 51.25 51.25zm0 5c31.065 0 56.245-25.184 56.245-56.25s-25.18-56.25-56.245-56.25c-31.066 0-56.25 25.184-56.25 56.25s25.184 56.25 56.25 56.25z" fill="#3e0663" fill-rule="evenodd"/>
    <path clip-rule="evenodd" d="m974.385 107.5c17.949 0 32.495-14.5507 32.495-32.5s-14.546-32.5-32.495-32.5c-17.95 0-32.5 14.5507-32.5 32.5s14.55 32.5 32.5 32.5zm0 5c20.71 0 37.495-16.7893 37.495-37.5s-16.785-37.5-37.495-37.5c-20.711 0-37.5 16.7893-37.5 37.5s16.789 37.5 37.5 37.5z" fill="#3e0663" fill-rule="evenodd"/>
    <path clip-rule="evenodd" d="m974.385 88.75c7.593 0 13.75-6.1561 13.75-13.75s-6.157-13.75-13.75-13.75c-7.594 0-13.75 6.1561-13.75 13.75s6.156 13.75 13.75 13.75zm0 5c10.355 0 18.75-8.3947 18.75-18.75s-8.395-18.75-18.75-18.75c-10.356 0-18.75 8.3947-18.75 18.75s8.394 18.75 18.75 18.75z" fill="#3e0663" fill-rule="evenodd"/>
    <path d="m1199.38 145c0 2.761-2.24 5.017-5 4.836-39.09-2.573-70-35.095-70-74.836 0-39.7409 30.91-72.26248 70-74.835903 2.76-.1814017 5 2.074493 5 4.835913z" fill="#3e0663"/>
    <path d="m1124.38 145c0 2.761-2.24 5.017-5 4.836-39.09-2.573-70-35.095-70-74.836 0-39.7409 30.91-72.26248 70-74.835903 2.76-.1814017 5 2.074493 5 4.835913z" fill="#350556"/>
</svg>
