<svg fill="context-fill" fill-opacity="context-fill-opacity" viewBox="0 0 16 16" width="16" height="16" xmlns="http://www.w3.org/2000/svg">
  <g clip-rule="evenodd" fill-rule="evenodd">
    <path d="m11 8c0 1.65686-1.34314 3-3 3-1.65685 0-3-1.34314-3-3 0-1.65685 1.34315-3 3-3 1.65686 0 3 1.34315 3 3zm-1.17187 0c0 1.00965-.81848 1.82813-1.82813 1.82813-1.00964 0-1.82812-.81848-1.82812-1.82813 0-1.00964.81848-1.82812 1.82812-1.82812 1.00965 0 1.82813.81848 1.82813 1.82812z"/>
    <path d="m7.99999 13.25c2.89951 0 5.25001-2.3505 5.25001-5.25001 0-2.89949-2.3505-5.25-5.25001-5.25-2.89949 0-5.25 2.35051-5.25 5.25 0 2.89951 2.35051 5.25001 5.25 5.25001zm0-1.1719c2.25231 0 4.07811-1.8258 4.07811-4.07811 0-2.25228-1.8258-4.07812-4.07811-4.07812-2.25228 0-4.07812 1.82584-4.07812 4.07812 0 2.25231 1.82584 4.07811 4.07812 4.07811z"/>
    <path d="m8 15.5c4.1421 0 7.5-3.3579 7.5-7.5 0-4.14214-3.3579-7.5-7.5-7.5-4.14214 0-7.5 3.35786-7.5 7.5 0 4.1421 3.35786 7.5 7.5 7.5zm0-1.1719c3.4949 0 6.3281-2.8332 6.3281-6.3281 0-3.49493-2.8332-6.32812-6.3281-6.32812-3.49493 0-6.32812 2.83319-6.32812 6.32812 0 3.4949 2.83319 6.3281 6.32812 6.3281z"/>
  </g>
  <path d="m.5 8c0 4.1421 3.35786 7.5 7.5 7.5v-15c-4.14214 0-7.5 3.35786-7.5 7.5z"/>
</svg>