<svg width="16px" height="16px" viewBox="0 0 16 16" version="1.1" xmlns="http://www.w3.org/2000/svg" xmlns:xlink="http://www.w3.org/1999/xlink">
    <g stroke="none" stroke-width="1" fill="context-fill" fill-rule="evenodd" opacity="context-fill-opacity">
        <path d="m10.707 6h3.993l.3-.3v-3.993c.0002-.09902-.0291-.19586-.084-.27825s-.1331-.14661-.2245-.18453c-.0915-.03792-.1922-.04782-.2893-.02845-.0971.01936-.1863.06713-.2562.13723l-1.459 1.459c-1.2817-1.16743-2.95335-1.813714-4.687-1.812-3.859 0-7 3.141-7 7s3.141 7 7 7c1.74123.007 3.422-.6379 4.7116-1.8079 1.2896-1.1701 2.0945-2.7804 2.2564-4.5141.0156-.1649-.0348-.32927-.1401-.4571s-.2571-.2087-.4219-.2249c-.1644-.01324-.3275.03801-.4548.1429s-.2088.2552-.2272.4191c-.1334 1.42392-.7948 2.7464-1.854 3.7072-1.0593.9609-2.43986 1.4905-3.87 1.4848-3.171 0-5.75-2.579-5.75-5.75s2.579-5.75 5.75-5.75c1.40277-.00207 2.7572.5123 3.805 1.445l-1.451 1.451c-.07.06987-.1178.15895-.1372.25597-.0194.09701-.0096.1976.0282.28903.0378.09144.1019.1696.1841.22461.0823.055.179.08437.2779.08439z"/>
        <path d="m8 12.5c-2.48528 0-4.5-2.0147-4.5-4.5 0-2.48528 2.01472-4.5 4.5-4.5z"/>
    </g>
</svg>
