<?xml version="1.0" encoding="UTF-8" standalone="no"?>
<svg viewBox="0 0 16 16" width="16" height="16" xmlns="http://www.w3.org/2000/svg">
  <path d="M 8 0.5 C 3.85786 0.5 0.5 3.85786 0.5 8 C 0.5 12.1421 3.85786 15.5 8 15.5 C 12.1421 15.5 15.5 12.1421 15.5 8 C 15.5 3.85786 12.1421 0.5 8 0.5 z M 8 1.671875 C 11.4949 1.671875 14.328125 4.50507 14.328125 8 C 14.328125 11.4949 11.4949 14.328125 8 14.328125 L 8 13.25 C 10.89951 13.25 13.25 10.89951 13.25 8 C 13.25 5.10051 10.89951 2.75 8 2.75 L 8 1.671875 z M 8 3.921875 C 10.25231 3.921875 12.078125 5.74772 12.078125 8 C 12.078125 10.25231 10.25231 12.078125 8 12.078125 L 8 11 C 9.65686 11 11 9.65686 11 8 C 11 6.34315 9.65686 5 8 5 L 8 3.921875 z M 8 6.171875 C 9.00965 6.171875 9.828125 6.99036 9.828125 8 C 9.828125 9.00965 9.00965 9.828125 8 9.828125 L 8 6.171875 z " clip-rule="evenodd" fill-rule="evenodd" fill="#000000"/>
</svg>
