<svg width="16" height="16" viewBox="0 0 16 16" fill="none" xmlns="http://www.w3.org/2000/svg">
<path d="M6.02301 13L1.18301 8.16099C1.07063 8.04262 1.00892 7.88505 1.01104 7.72185C1.01316 7.55865 1.07893 7.40273 1.19434 7.28732C1.30975 7.17191 1.46567 7.10613 1.62887 7.10402C1.79207 7.1019 1.94964 7.16361 2.06801 7.27599L6.37501 11.584L13.934 4.02299C14.0517 3.90617 14.2107 3.84061 14.3765 3.84061C14.5423 3.84061 14.7014 3.90617 14.819 4.02299C14.9358 4.14063 15.0014 4.29969 15.0014 4.46549C15.0014 4.63128 14.9358 4.79034 14.819 4.90799L6.72901 12.998L6.02301 13Z" fill="context-fill"/>
</svg>
