<?xml version="1.0" encoding="UTF-8" standalone="no"?>
<svg fill="none" height="60" viewBox="0 0 60 60" width="60" xmlns="http://www.w3.org/2000/svg">
  <path fill="context-fill" d="M 30,1.875 C 14.467,1.875 1.875,14.467 1.875,30 c 0,6.725546 2.3647525,12.894963 6.3027344,17.734375 l -4.7636719,4.763672 c -0.7834743,0.783474 -0.7834743,2.044651 0,2.828125 0.7834743,0.783474 2.0446507,0.783474 2.828125,0 C 21.046044,40.52782 34.415343,27.146014 47.546875,14.023438 v -0.002 l 6.779297,-6.7792965 c 0.783474,-0.7834743 0.783474,-2.0446507 0,-2.828125 -0.783474,-0.7834743 -2.044651,-0.7834743 -2.828125,0 L 47.734375,8.1777344 C 42.894963,4.2397525 36.725546,1.875 30,1.875 Z m 0,4.3945312 c 5.511128,0 10.579364,1.8833224 14.607422,5.0351568 l -2.88086,2.880859 C 38.450945,11.752724 34.393751,10.3125 30,10.3125 Z m 23.171875,7.7851568 -3.169922,3.169921 c 2.3606,3.688 3.728516,8.071691 3.728516,12.775391 0,1.1686 -0.08495,2.318106 -0.248047,3.441406 L 56.625,39.085938 c 0.9722,-2.8501 1.5,-5.906738 1.5,-9.085938 0,-5.9206 -1.828625,-11.413713 -4.953125,-15.945312 z M 30,14.707031 c 3.177831,0 6.128683,0.969877 8.574219,2.628907 l -2.931641,2.933593 C 33.98338,19.305214 32.05732,18.75 30,18.75 Z m 17.058594,5.458985 -3.25,3.251953 c 0.6734,1.4099 1.135809,2.938675 1.349609,4.546875 1.5363,-0.1698 3.117694,0.126925 4.496094,0.890625 -0.1807,-3.1525 -1.103403,-6.106153 -2.595703,-8.689453 z M 30,23.144531 c 0.826564,0 1.617815,0.147937 2.351562,0.416016 L 30,25.912109 Z m 10.703125,3.378907 -3.857422,3.857421 c -0.1905,3.4833 -2.981544,6.274344 -6.464844,6.464844 L 30,37.224609 v 0.002 c -5.415919,5.416107 -11.224329,11.222894 -15.945312,15.945313 1.319718,0.909937 2.719791,1.709665 4.189453,2.386719 3.233255,1.489519 6.798228,2.383028 10.552734,2.541015 -1.196895,-2.322912 -1.228443,-4.952483 0.02739,-7.248052 1.05453,-1.896289 2.110388,-3.79184 3.165973,-5.687542 C 31.338834,45.248762 30.6744,45.292969 30,45.292969 V 41.25 c 1.6992,0 3.309606,-0.376281 4.753906,-1.050781 l 4.69336,-8.429688 c 0.4837,-0.8688 1.097775,-1.589162 1.796875,-2.164062 -0.037,-1.0721 -0.224316,-2.106431 -0.541016,-3.082031 z" />
  <path fill="#d70022" d="m59.5328 52.4973-10.261-18.5715c-.7112-1.2833-1.9917-1.9258-3.2722-1.9258-1.2806 0-2.5611.6425-3.2704 1.9258l-10.261 18.5715c-1.3701 2.4755.4312 5.5027 3.2704 5.5027h20.5238c2.8373 0 4.6387-3.0272 3.2704-5.5027zm-12.3666-.533-.4666.4642h-1.4l-.4667-.4642v-1.3929l.4667-.4643h1.4l.4666.4643zm0-4.992c0 .3078-.1229.603-.3417.8207s-.5155.34-.8249.34-.6062-.1223-.825-.34-.3417-.5129-.3417-.8207v-6.383c0-.3079.1229-.6031.3417-.8208s.5156-.34.825-.34.6061.1223.8249.34.3417.5129.3417.8208z" />
</svg>
