<?xml version="1.0" encoding="UTF-8" standalone="no"?>
<svg fill="none" height="60" viewBox="0 0 60 60" width="60" xmlns="http://www.w3.org/2000/svg">
  <path fill="context-fill" d="M 30,1.875 C 14.467,1.875 1.875,14.467 1.875,30 c 0,6.725546 2.3647429,12.894963 6.3027344,17.734375 l -4.7636719,4.763672 c -0.7834743,0.783474 -0.7834743,2.044651 0,2.828125 0.7834743,0.783474 2.0446507,0.783474 2.828125,0 C 21.049647,40.524244 34.416498,27.144859 47.546875,14.023438 v -0.002 l 6.779297,-6.7792965 c 0.783474,-0.7834743 0.783474,-2.0446507 0,-2.828125 -0.783474,-0.7834743 -2.044651,-0.7834743 -2.828125,0 L 47.734375,8.1777344 C 42.894963,4.2397429 36.725546,1.875 30,1.875 Z m 0,4.3945312 c 5.511049,0 10.579367,1.8833675 14.607422,5.0351568 l -2.88086,2.880859 C 38.450922,11.752724 34.393676,10.3125 30,10.3125 Z m 23.171875,7.7851568 -3.169922,3.169921 c 2.0599,3.2183 3.363209,6.965941 3.662109,10.994141 1.6451,0.9052 3.133663,2.060563 4.414063,3.414062 C 58.109025,31.092612 58.125,30.5479 58.125,30 c 0,-5.9207 -1.828725,-11.413612 -4.953125,-15.945312 z M 30,14.707031 c 3.177763,0 6.128689,0.96991 8.574219,2.628907 l -2.931641,2.933593 C 33.983382,19.305242 32.057261,18.75 30,18.75 Z m 17.058594,5.458985 -3.25,3.251953 c 0.3932,0.8233 0.714831,1.687384 0.957031,2.583984 C 44.843925,26.000953 44.9215,26 45,26 c 1.5121,0 2.981466,0.186009 4.384766,0.537109 -0.4052,-2.2842 -1.205872,-4.431893 -2.326172,-6.371093 z M 30,23.144531 c 0.826528,0 1.61783,0.147942 2.351562,0.416016 L 30,25.912109 Z M 27.513672,39.710938 C 22.924606,44.301329 18.153439,49.072905 14.054688,53.171875 18.586388,56.296275 24.0793,58.125 30,58.125 c 1.2074,0 2.397153,-0.07701 3.564453,-0.224609 -1.405046,-1.157246 -2.630299,-2.523304 -3.630859,-4.050782 -1.074704,-1.73735 -1.733781,-3.296 -2.273434,-5.009765 C 27.215587,47.179488 27.041393,45.619 27,44 c 0,-1.105 0.100333,-2.186283 0.291016,-3.236328 5.91e-4,-0.0033 0.0014,-0.0065 0.002,-0.0098 0.06395,-0.351034 0.136703,-0.699344 0.220703,-1.042968 z" />
  <path fill="#ffa436" d="m45 30c-3.713 0-7.274 1.475-9.8995 4.1005s-4.1005 6.1865-4.1005 9.8995 1.475 7.274 4.1005 9.8995 6.1865 4.1005 9.8995 4.1005 7.274-1.475 9.8995-4.1005 4.1005-6.1865 4.1005-9.8995-1.475-7.274-4.1005-9.8995-6.1865-4.1005-9.8995-4.1005zm4.5677 3.2667c1.9167.8229 3.5778 2.1443 4.8108 3.8267 1.233 1.6825 1.9928 3.6644 2.2004 5.7399h-4.1608c-.2298-3.4759-1.4862-6.8054-3.6101-9.5666zm-3.8248 0c2.5257 2.5792 4.06 5.967 4.3326 9.5666h-10.151c.2726-3.5996 1.8069-6.9874 4.3326-9.5666zm-5.3125 0h.7616c-2.1231 2.7616-3.3794 6.0909-3.6101 9.5666h-4.1608c.2072-2.0753.9667-4.0573 2.1993-5.7397 1.2327-1.6824 2.8936-3.0039 4.81-3.8269zm0 21.4666c-1.9166-.8227-3.5777-2.1441-4.8105-3.8266-1.2327-1.6825-1.992-3.6646-2.1988-5.74h4.1608c.2298 3.4759 1.4862 6.8054 3.6101 9.5666zm3.8267 0c-2.5257-2.5792-4.06-5.967-4.3326-9.5666h10.1491c-.2725 3.5996-1.8068 6.9874-4.3325 9.5666zm5.3125 0h-.7635c2.1247-2.7607 3.3812-6.0905 3.6102-9.5666h4.1608c-.2069 2.0752-.966 4.0571-2.1984 5.7395-1.2323 1.6824-2.8929 3.004-4.8091 3.8271z" />
</svg>
