<?xml version="1.0" encoding="UTF-8" standalone="no"?>
<svg width="16" height="16" viewBox="0 0 16 16" fill="none" xmlns="http://www.w3.org/2000/svg">
    <path d="M8 0.5C6.01088 0.5 4.10322 1.29018 2.6967 2.6967C1.29018 4.10322 0.5 6.01088 0.5 8C0.5 9.98912 1.29018 11.8968 2.6967 13.3033C4.10322 14.7098 6.01088 15.5 8 15.5C9.98912 15.5 11.8968 14.7098 13.3033 13.3033C14.7098 11.8968 15.5 9.98912 15.5 8C15.5 6.01088 14.7098 4.10322 13.3033 2.6967C11.8968 1.29018 9.98912 0.5 8 0.5ZM10.447 2.25C11.4738 2.69088 12.3637 3.39877 13.0242 4.30006C13.6848 5.20135 14.0918 6.26313 14.203 7.375H11.974C11.8509 5.51288 11.1778 3.72922 10.04 2.25H10.447ZM8.398 2.25C9.75105 3.63171 10.573 5.44665 10.719 7.375H5.281C5.427 5.44665 6.24895 3.63171 7.602 2.25H8.398ZM5.552 2.25H5.96C4.82264 3.72945 4.1496 5.51299 4.026 7.375H1.797C1.90802 6.2632 2.31487 5.20145 2.97523 4.30016C3.63559 3.39886 4.52536 2.69094 5.552 2.25ZM5.552 13.75C4.52524 13.3092 3.63536 12.6014 2.97497 11.7C2.31458 10.7987 1.90781 9.73686 1.797 8.625H4.026C4.14912 10.4871 4.82222 12.2708 5.96 13.75H5.552ZM7.602 13.75C6.24895 12.3683 5.427 10.5534 5.281 8.625H10.718C10.572 10.5534 9.75005 12.3683 8.397 13.75H7.602ZM10.448 13.75H10.039C11.1772 12.271 11.8504 10.4872 11.973 8.625H14.202C14.0912 9.73672 13.6845 10.7984 13.0243 11.6997C12.3641 12.601 11.4745 13.309 10.448 13.75Z" fill="context-fill"/>
</svg>
